<svg width="17" height="16" viewBox="0 0 17 16" fill="none" xmlns="http://www.w3.org/2000/svg">
<path d="M15.7059 9.06653C15.4393 8.40892 15.4393 7.68021 15.7059 7.04036L15.7948 6.82708C16.3635 5.4763 15.7059 3.91224 14.3551 3.34349L14.1596 3.25463C13.502 2.98802 12.9866 2.4726 12.72 1.81498L12.6489 1.63724C12.0623 0.286465 10.5161 -0.353378 9.1475 0.197597L8.96976 0.268691C8.31215 0.535292 7.58344 0.535292 6.92582 0.268691L6.76586 0.197597C5.43285 -0.353378 3.86879 0.304238 3.30005 1.65502L3.22895 1.79721C2.96235 2.45482 2.44692 2.97025 1.7893 3.23685L1.62934 3.30795C0.296337 3.8767 -0.361279 5.44076 0.20747 6.79154L0.278564 6.9515C0.545165 7.60911 0.545165 8.33782 0.278564 8.97767L0.20747 9.17317C-0.361279 10.524 0.278564 12.088 1.64712 12.639L1.82485 12.7101C2.48247 12.9767 2.9979 13.4921 3.2645 14.1497L3.35337 14.3452C3.90434 15.7138 5.4684 16.3536 6.81918 15.8027L7.01469 15.7138C7.67231 15.4472 8.40102 15.4472 9.05863 15.7138L9.21859 15.7849C10.5694 16.3536 12.1334 15.696 12.7022 14.3452L12.7733 14.2031C13.0399 13.5454 13.5553 13.03 14.2129 12.7634L14.3551 12.7101C15.7237 12.1413 16.3635 10.595 15.7948 9.22649L15.7059 9.06653ZM7.24574 11.4659L3.77993 8.5511L4.84633 7.28919L7.05024 9.1554L10.9426 4.53431L12.2045 5.60072L7.24574 11.4659Z" fill="black"/>
</svg>
